<svg xmlns="http://www.w3.org/2000/svg" viewBox="0 0 128 128" width="128" height="128">
  <defs>
    <linearGradient id="g" x1="0" y1="0" x2="1" y2="1">
      <stop offset="0%" stop-color="#A78BFA"/>
      <stop offset="100%" stop-color="#8B5CF6"/>
    </linearGradient>
  </defs>
  <rect width="128" height="128" rx="24" fill="white"/>
  <!-- Heart outline -->
  <path d="M64 98c-1.4 0-2.7-.5-3.7-1.5l-26-24.9C24 62.2 22 56.5 22 51.2 22 39.7 31.4 30 42.9 30c6.5 0 12.6 3 16.5 8.1C63.2 33 69.3 30 75.8 30 87.3 30 96.7 39.7 96.7 51.2c0 5.3-2 11-12.3 20.4l-16.7 16.9c-1 1-2.3 1.5-3.7 1.5Z" fill="none" stroke="url(#g)" stroke-width="6" stroke-linecap="round" stroke-linejoin="round"/>
  <!-- Dollar sign -->
  <path d="M63 42v34" stroke="#8B5CF6" stroke-width="6" stroke-linecap="round"/>
  <path d="M53 50c3-4 21-4 24 0" stroke="#8B5CF6" stroke-width="6" stroke-linecap="round" fill="none"/>
  <path d="M53 68c3 4 21 4 24 0" stroke="#8B5CF6" stroke-width="6" stroke-linecap="round" fill="none"/>
  <!-- Bars -->
  <rect x="18" y="84" width="10" height="10" rx="2" fill="#8B5CF6"/>
  <rect x="32" y="74" width="12" height="20" rx="2" fill="#8B5CF6"/>
  <rect x="48" y="64" width="14" height="30" rx="2" fill="#8B5CF6"/>
</svg>